{"title":"Lil Twist ft Bow Wow - Little Secret [KingPinVideos]","uid":5761397,"size":95605407,"categoryP":"video","categoryS":"music_videos","magnet":"?xt=urn:btih:027aa5fcfb8cdaf2394311deca61ea7d735ce817&amp;dn=Lil+Twist+ft+Bow+Wow+-+Little+Secret+%5BKingPinVideos%5D&amp;tr=udp%3A%2F%2Ftracker.openbittorrent.com%3A80&amp;tr=udp%3A%2F%2Fopen.demonii.com%3A1337&amp;tr=udp%3A%2F%2Ftracker.coppersurfer.tk%3A6969&amp;tr=udp%3A%2F%2Fexodus.desync.com%3A6969","seeders":1,"leechers":0,"uploader":"KingPinMan","files":4,"time":1281744690,"description":"[img]http://a.imageshack.us/img189/6612/liltwistsecret2.png[/img]\n\n[img]http://a.imageshack.us/img810/3131/liltwistsecret.png[/img]\n\n[code]General\nComplete name                    : Lil Twist ft Bow Wow - Little Secret [KingPinVideos].mpg\nFormat                           : MPEG-PS\nFile size                        : 91.2 MiB\nDuration                         : 4mn 27s\nOverall bit rate                 : 2 857 Kbps\nWriting library                  : encoded by TMPGEnc 4.0 XPress Version. 4.7.4.299\n\nVideo\nID                               : 224 (0xE0)\nFormat                           : MPEG Video\nFormat version                   : Version 1\nFormat settings, BVOP            : Yes\nFormat settings, Matrix          : Default\nDuration                         : 4mn 27s\nBit rate mode                    : Constant\nBit rate                         : 2 616 Kbps\nNominal bit rate                 : 2 700 Kbps\nWidth                            : 384 pixels\nHeight                           : 208 pixels\nDisplay aspect ratio             : 16:9\nFrame rate                       : 29.970 fps\nResolution                       : 8 bits\nScan type                        : Progressive\nBits/(Pixel*Frame)               : 1.093\nStream size                      : 83.5 MiB (92%)\nWriting library                  : TMPGEnc XPress 4.7.4.299\n\nAudio\nID                               : 192 (0xC0)\nFormat                           : MPEG Audio\nFormat version                   : Version 1\nFormat profile                   : Layer 2\nDuration                         : 4mn 27s\nBit rate mode                    : Constant\nBit rate                         : 128 Kbps\nChannel(s)                       : 2 channels\nSampling rate                    : 48.0 KHz\nStream size                      : 4.08 MiB (4%)[/code]","torrent":{"xt":"urn:btih:027aa5fcfb8cdaf2394311deca61ea7d735ce817","amp;dn":"Lil+Twist+ft+Bow+Wow+-+Little+Secret+%5BKingPinVideos%5D","amp;tr":["udp%3A%2F%2Ftracker.openbittorrent.com%3A80","udp%3A%2F%2Fopen.demonii.com%3A1337","udp%3A%2F%2Ftracker.coppersurfer.tk%3A6969","udp%3A%2F%2Fexodus.desync.com%3A6969"],"infoHash":"027aa5fcfb8cdaf2394311deca61ea7d735ce817","infoHashBuffer":{"type":"Buffer","data":[2,122,165,252,251,140,218,242,57,67,17,222,202,97,234,125,115,92,232,23]},"announce":[],"urlList":[]}}